<svg width="43" height="44" xmlns="http://www.w3.org/2000/svg" xmlns:xlink="http://www.w3.org/1999/xlink" xml:space="preserve" overflow="hidden"><g transform="translate(-9 -158)"><path d="M21.4937 4.47917C12.0986 4.47917 4.4823 12.0955 4.4823 21.4906 4.4823 30.8857 12.0986 38.502 21.4937 38.502 30.8889 38.502 38.5052 30.8857 38.5052 21.4906 38.5052 21.49 38.5052 21.4894 38.5052 21.4888 38.5084 12.0979 30.8981 4.48239 21.5072 4.47917 21.5027 4.47916 21.4982 4.47916 21.4937 4.47917ZM29.8335 23.005 23.0081 23.005 23.0081 29.8286 19.9793 29.8286 19.9793 23.0032 13.154 23.0032 13.154 19.9744 19.9793 19.9744 19.9793 13.149 23.0081 13.149 23.0081 19.9744 29.8335 19.9744Z" fill="#E9D787" transform="matrix(1 0 0 1.02326 9 158)"/></g></svg>