<svg width="43" height="43" xmlns="http://www.w3.org/2000/svg" xmlns:xlink="http://www.w3.org/1999/xlink" xml:space="preserve" overflow="hidden"><g transform="translate(-7 -213)"><path d="M41.9375 221.958 34.3229 221.958 34.3229 219.719C34.3229 217.972 32.9344 216.583 31.1875 216.583L25.8125 216.583C24.0656 216.583 22.6771 217.972 22.6771 219.719L22.6771 221.958 15.0625 221.958C14.0771 221.958 13.2708 222.765 13.2708 223.75L13.2708 225.542 43.7292 225.542 43.7292 223.75C43.7292 222.765 42.9229 221.958 41.9375 221.958ZM25.3646 219.719C25.3646 219.45 25.5438 219.271 25.8125 219.271L31.1875 219.271C31.4562 219.271 31.6354 219.45 31.6354 219.719L31.6354 221.958 25.3646 221.958 25.3646 219.719Z" fill="#E9D787"/><path d="M15.9583 250.625C15.9583 251.61 16.7646 252.417 17.75 252.417L39.25 252.417C40.2354 252.417 41.0417 251.61 41.0417 250.625L41.0417 227.333 15.9583 227.333 15.9583 250.625ZM34.3229 230.021 37.0104 230.021 37.0104 249.729 34.3229 249.729 34.3229 230.021ZM27.1562 230.021 29.8438 230.021 29.8438 249.729 27.1562 249.729 27.1562 230.021ZM19.9896 230.021 22.6771 230.021 22.6771 249.729 19.9896 249.729 19.9896 230.021Z" fill="#E9D787"/></g></svg>