<svg width="43" height="43" xmlns="http://www.w3.org/2000/svg" xmlns:xlink="http://www.w3.org/1999/xlink" xml:space="preserve" overflow="hidden"><g transform="translate(-9 -267)"><path d="M41.4914 276.406C40.749 274.047 38.2342 272.735 35.8745 273.478 34.4786 273.917 33.3853 275.01 32.9461 276.406L15.2708 276.406 15.2708 279.094 32.9461 279.094C33.6885 281.453 36.2033 282.765 38.563 282.022 39.9589 281.583 41.0522 280.49 41.4914 279.094L45.7292 279.094 45.7292 276.406ZM37.2188 279.542C36.2293 279.542 35.4271 278.74 35.4271 277.75 35.4271 276.76 36.2293 275.958 37.2188 275.958 38.2082 275.958 39.0104 276.76 39.0104 277.75 39.0104 278.74 38.2082 279.542 37.2188 279.542Z" fill="#E9D787"/><path d="M35.4271 294.771C33.4718 294.773 31.7433 296.042 31.1544 297.906L15.2708 297.906 15.2708 300.594 31.1544 300.594C31.8968 302.953 34.4117 304.265 36.7714 303.522 38.1673 303.083 39.2606 301.99 39.6998 300.594L45.7292 300.594 45.7292 297.906 39.6998 297.906C39.1108 296.042 37.3823 294.773 35.4271 294.771ZM35.4271 301.042C34.4376 301.042 33.6354 300.24 33.6354 299.25 33.6354 298.26 34.4376 297.458 35.4271 297.458 36.4166 297.458 37.2188 298.26 37.2188 299.25 37.2188 300.24 36.4166 301.042 35.4271 301.042Z" fill="#E9D787"/><path d="M24.2292 284.021C22.2739 284.023 20.5454 285.292 19.9565 287.156L15.2708 287.156 15.2708 289.844 19.9565 289.844C20.6989 292.203 23.2137 293.515 25.5735 292.772 26.9693 292.333 28.0627 291.24 28.5018 289.844L45.7292 289.844 45.7292 287.156 28.5018 287.156C27.9129 285.292 26.1844 284.023 24.2292 284.021ZM24.2292 290.292C23.2397 290.292 22.4375 289.49 22.4375 288.5 22.4375 287.51 23.2397 286.708 24.2292 286.708 25.2187 286.708 26.0208 287.51 26.0208 288.5 26.0208 289.49 25.2187 290.292 24.2292 290.292Z" fill="#E9D787"/></g></svg>